<?xml version="1.0" encoding="UTF-8" standalone="no"?>
<!DOCTYPE svg PUBLIC "-//W3C//DTD SVG 1.1//EN"
 "http://www.w3.org/Graphics/SVG/1.1/DTD/svg11.dtd">
<!-- Generated by graphviz version 2.43.0 (0)
 -->
<!-- Title: pairwise Pages: 1 -->
<svg width="268pt" height="332pt"
 viewBox="0.00 0.00 268.00 332.00" xmlns="http://www.w3.org/2000/svg" xmlns:xlink="http://www.w3.org/1999/xlink">
<g id="graph0" class="graph" transform="scale(1 1) rotate(0) translate(4 328)">
<title>pairwise</title>
<!-- a1 -->
<g id="node1" class="node">
<title>a1</title>
<polygon fill="none" stroke="black" points="75,-324 20,-324 20,-288 75,-288 75,-324"/>
<text text-anchor="middle" x="47.5" y="-302.3" font-family="Times,serif" font-size="14.00">Names</text>
</g>
<!-- b1 -->
<g id="node2" class="node">
<title>b1</title>
<ellipse fill="none" stroke="black" cx="47.5" cy="-234" rx="29.5" ry="18"/>
<text text-anchor="middle" x="47.5" y="-230.3" font-family="Times,serif" font-size="14.00">parse</text>
</g>
<!-- a1&#45;&gt;b1 -->
<g id="edge1" class="edge">
<title>a1&#45;&gt;b1</title>
<path fill="none" stroke="black" d="M47.5,-287.7C47.5,-279.98 47.5,-270.71 47.5,-262.11"/>
<polygon fill="black" stroke="black" points="51,-262.1 47.5,-252.1 44,-262.1 51,-262.1"/>
</g>
<!-- c1 -->
<g id="node3" class="node">
<title>c1</title>
<polygon fill="none" stroke="black" points="95,-180 0,-180 0,-144 95,-144 95,-180"/>
<text text-anchor="middle" x="47.5" y="-158.3" font-family="Times,serif" font-size="14.00">Parsed Names</text>
</g>
<!-- b1&#45;&gt;c1 -->
<g id="edge2" class="edge">
<title>b1&#45;&gt;c1</title>
<path fill="none" stroke="black" d="M47.5,-215.7C47.5,-207.98 47.5,-198.71 47.5,-190.11"/>
<polygon fill="black" stroke="black" points="51,-190.1 47.5,-180.1 44,-190.1 51,-190.1"/>
</g>
<!-- e1 -->
<g id="node5" class="node">
<title>e1</title>
<ellipse fill="none" stroke="black" cx="116.5" cy="-90" rx="28.7" ry="18"/>
<text text-anchor="middle" x="116.5" y="-86.3" font-family="Times,serif" font-size="14.00">align</text>
</g>
<!-- c1&#45;&gt;e1 -->
<g id="edge3" class="edge">
<title>c1&#45;&gt;e1</title>
<path fill="none" stroke="black" d="M64.56,-143.7C73.72,-134.41 85.1,-122.86 94.87,-112.94"/>
<polygon fill="black" stroke="black" points="97.44,-115.32 101.97,-105.74 92.46,-110.4 97.44,-115.32"/>
</g>
<!-- d1 -->
<g id="node4" class="node">
<title>d1</title>
<polygon fill="none" stroke="black" points="260,-180 113,-180 113,-144 260,-144 260,-180"/>
<text text-anchor="middle" x="186.5" y="-158.3" font-family="Times,serif" font-size="14.00">Taxonomic Resource(s)</text>
</g>
<!-- d1&#45;&gt;e1 -->
<g id="edge4" class="edge">
<title>d1&#45;&gt;e1</title>
<path fill="none" stroke="black" d="M169.2,-143.7C159.91,-134.41 148.36,-122.86 138.44,-112.94"/>
<polygon fill="black" stroke="black" points="140.78,-110.33 131.24,-105.74 135.83,-115.28 140.78,-110.33"/>
</g>
<!-- f1 -->
<g id="node6" class="node">
<title>f1</title>
<polygon fill="none" stroke="black" points="174.5,-36 58.5,-36 58.5,0 174.5,0 174.5,-36"/>
<text text-anchor="middle" x="116.5" y="-14.3" font-family="Times,serif" font-size="14.00">Alignment Report</text>
</g>
<!-- e1&#45;&gt;f1 -->
<g id="edge5" class="edge">
<title>e1&#45;&gt;f1</title>
<path fill="none" stroke="black" d="M116.5,-71.7C116.5,-63.98 116.5,-54.71 116.5,-46.11"/>
<polygon fill="black" stroke="black" points="120,-46.1 116.5,-36.1 113,-46.1 120,-46.1"/>
</g>
</g>
</svg>
